<svg class="cHtnVmyWbPoxFAhzPSDU" width="22" height="22" viewBox="0 0 22 22" fill="none"><path d="M11.375 12.3704L15.425 16.4204L16.625 15.2204L12.575 11.1704L16.625 7.12041L15.425 5.92041L11.375 9.97041L7.325 5.92041L6.125 7.12041L10.175 11.1704L6.125 15.2204L7.325 16.4204L11.375 12.3704Z" fill="currentColor"></path><path fill-rule="evenodd" clip-rule="evenodd" d="M0.875 11.1704C0.875 5.32041 5.525 0.67041 11.375 0.67041C17.225 0.67041 21.875 5.32041 21.875 11.1704C21.875 17.0204 17.225 21.6704 11.375 21.6704C5.525 21.6704 0.875 17.0204 0.875 11.1704ZM2.375 11.1704C2.375 16.1204 6.425 20.1704 11.375 20.1704C16.325 20.1704 20.375 16.1204 20.375 11.1704C20.375 6.22041 16.325 2.17041 11.375 2.17041C6.425 2.17041 2.375 6.22041 2.375 11.1704Z" fill="currentColor"></path></svg>
