<svg width="202" height="40" viewBox="0 0 202 40" fill="none" xmlns="http://www.w3.org/2000/svg">
    <path d="M19.26 1.26V22.26H14.4V13.65H4.86V22.26H0V1.26H4.86V9.54H14.4V1.26H19.26Z" fill="#2F54EB"/>
    <path d="M31.5785 22.5C29.8785 22.5 28.3485 22.15 26.9885 21.45C25.6485 20.73 24.5985 19.74 23.8385 18.48C23.0785 17.22 22.6985 15.79 22.6985 14.19C22.6985 12.59 23.0785 11.16 23.8385 9.9C24.5985 8.64 25.6485 7.66 26.9885 6.96C28.3485 6.24 29.8785 5.88 31.5785 5.88C33.2785 5.88 34.7985 6.24 36.1385 6.96C37.4785 7.66 38.5285 8.64 39.2885 9.9C40.0485 11.16 40.4285 12.59 40.4285 14.19C40.4285 15.79 40.0485 17.22 39.2885 18.48C38.5285 19.74 37.4785 20.73 36.1385 21.45C34.7985 22.15 33.2785 22.5 31.5785 22.5ZM31.5785 18.66C32.7785 18.66 33.7585 18.26 34.5185 17.46C35.2985 16.64 35.6885 15.55 35.6885 14.19C35.6885 12.83 35.2985 11.75 34.5185 10.95C33.7585 10.13 32.7785 9.72 31.5785 9.72C30.3785 9.72 29.3885 10.13 28.6085 10.95C27.8285 11.75 27.4385 12.83 27.4385 14.19C27.4385 15.55 27.8285 16.64 28.6085 17.46C29.3885 18.26 30.3785 18.66 31.5785 18.66Z" fill="#2F54EB"/>
    <path d="M64.2267 5.88C66.2467 5.88 67.8467 6.48 69.0267 7.68C70.2267 8.86 70.8267 10.64 70.8267 13.02V22.26H66.1467V13.74C66.1467 12.46 65.8767 11.51 65.3367 10.89C64.8167 10.25 64.0667 9.93 63.0867 9.93C61.9867 9.93 61.1167 10.29 60.4767 11.01C59.8367 11.71 59.5167 12.76 59.5167 14.16V22.26H54.8367V13.74C54.8367 11.2 53.8167 9.93 51.7767 9.93C50.6967 9.93 49.8367 10.29 49.1967 11.01C48.5567 11.71 48.2367 12.76 48.2367 14.16V22.26H43.5567V6.12H48.0267V7.98C48.6267 7.3 49.3567 6.78 50.2167 6.42C51.0967 6.06 52.0567 5.88 53.0967 5.88C54.2367 5.88 55.2667 6.11 56.1867 6.57C57.1067 7.01 57.8467 7.66 58.4067 8.52C59.0667 7.68 59.8967 7.03 60.8967 6.57C61.9167 6.11 63.0267 5.88 64.2267 5.88Z" fill="#2F54EB"/>
    <path d="M91.0073 14.25C91.0073 14.31 90.9773 14.73 90.9173 15.51H78.7073C78.9273 16.51 79.4473 17.3 80.2673 17.88C81.0873 18.46 82.1073 18.75 83.3273 18.75C84.1673 18.75 84.9073 18.63 85.5473 18.39C86.2074 18.13 86.8174 17.73 87.3773 17.19L89.8673 19.89C88.3473 21.63 86.1273 22.5 83.2073 22.5C81.3873 22.5 79.7773 22.15 78.3773 21.45C76.9773 20.73 75.8973 19.74 75.1373 18.48C74.3773 17.22 73.9973 15.79 73.9973 14.19C73.9973 12.61 74.3673 11.19 75.1073 9.93C75.8673 8.65 76.8973 7.66 78.1973 6.96C79.5173 6.24 80.9873 5.88 82.6073 5.88C84.1873 5.88 85.6173 6.22 86.8973 6.9C88.1773 7.58 89.1773 8.56 89.8973 9.84C90.6373 11.1 91.0073 12.57 91.0073 14.25ZM82.6373 9.42C81.5773 9.42 80.6873 9.72 79.9673 10.32C79.2473 10.92 78.8074 11.74 78.6473 12.78H86.5973C86.4373 11.76 85.9973 10.95 85.2773 10.35C84.5573 9.73 83.6773 9.42 82.6373 9.42Z" fill="#2F54EB"/>
    <path d="M109.873 11.34C111.073 11.72 112.013 12.36 112.693 13.26C113.373 14.14 113.713 15.23 113.713 16.53C113.713 18.37 112.993 19.79 111.553 20.79C110.133 21.77 108.053 22.26 105.313 22.26H94.4531V1.26H104.713C107.273 1.26 109.233 1.75 110.593 2.73C111.973 3.71 112.663 5.04 112.663 6.72C112.663 7.74 112.413 8.65 111.913 9.45C111.433 10.25 110.753 10.88 109.873 11.34ZM99.2831 4.92V9.87H104.113C105.313 9.87 106.223 9.66 106.843 9.24C107.463 8.82 107.773 8.2 107.773 7.38C107.773 6.56 107.463 5.95 106.843 5.55C106.223 5.13 105.313 4.92 104.113 4.92H99.2831ZM104.953 18.6C106.233 18.6 107.193 18.39 107.833 17.97C108.493 17.55 108.823 16.9 108.823 16.02C108.823 14.28 107.533 13.41 104.953 13.41H99.2831V18.6H104.953Z" fill="#2F54EB"/>
    <path d="M133.323 6.12V22.26H128.883V20.34C128.263 21.04 127.523 21.58 126.663 21.96C125.803 22.32 124.873 22.5 123.873 22.5C121.753 22.5 120.073 21.89 118.833 20.67C117.593 19.45 116.973 17.64 116.973 15.24V6.12H121.653V14.55C121.653 17.15 122.743 18.45 124.923 18.45C126.043 18.45 126.943 18.09 127.623 17.37C128.303 16.63 128.643 15.54 128.643 14.1V6.12H133.323Z" fill="#2F54EB"/>
    <path d="M154.098 0V22.26H149.628V20.4C148.468 21.8 146.788 22.5 144.588 22.5C143.068 22.5 141.688 22.16 140.448 21.48C139.228 20.8 138.268 19.83 137.568 18.57C136.868 17.31 136.518 15.85 136.518 14.19C136.518 12.53 136.868 11.07 137.568 9.81C138.268 8.55 139.228 7.58 140.448 6.9C141.688 6.22 143.068 5.88 144.588 5.88C146.648 5.88 148.258 6.53 149.418 7.83V0H154.098ZM145.398 18.66C146.578 18.66 147.558 18.26 148.338 17.46C149.118 16.64 149.508 15.55 149.508 14.19C149.508 12.83 149.118 11.75 148.338 10.95C147.558 10.13 146.578 9.72 145.398 9.72C144.198 9.72 143.208 10.13 142.428 10.95C141.648 11.75 141.258 12.83 141.258 14.19C141.258 15.55 141.648 16.64 142.428 17.46C143.208 18.26 144.198 18.66 145.398 18.66Z" fill="#2F54EB"/>
    <path d="M174.87 0V22.26H170.4V20.4C169.24 21.8 167.56 22.5 165.36 22.5C163.84 22.5 162.46 22.16 161.22 21.48C160 20.8 159.04 19.83 158.34 18.57C157.64 17.31 157.29 15.85 157.29 14.19C157.29 12.53 157.64 11.07 158.34 9.81C159.04 8.55 160 7.58 161.22 6.9C162.46 6.22 163.84 5.88 165.36 5.88C167.42 5.88 169.03 6.53 170.19 7.83V0H174.87ZM166.17 18.66C167.35 18.66 168.33 18.26 169.11 17.46C169.89 16.64 170.28 15.55 170.28 14.19C170.28 12.83 169.89 11.75 169.11 10.95C168.33 10.13 167.35 9.72 166.17 9.72C164.97 9.72 163.98 10.13 163.2 10.95C162.42 11.75 162.03 12.83 162.03 14.19C162.03 15.55 162.42 16.64 163.2 17.46C163.98 18.26 164.97 18.66 166.17 18.66Z" fill="#2F54EB"/>
    <path d="M195.221 6.12L187.931 23.25C187.191 25.11 186.271 26.42 185.171 27.18C184.091 27.94 182.781 28.32 181.241 28.32C180.401 28.32 179.571 28.19 178.751 27.93C177.931 27.67 177.261 27.31 176.741 26.85L178.451 23.52C178.811 23.84 179.221 24.09 179.681 24.27C180.161 24.45 180.631 24.54 181.091 24.54C181.731 24.54 182.251 24.38 182.651 24.06C183.051 23.76 183.411 23.25 183.731 22.53L183.791 22.38L176.801 6.12H181.631L186.161 17.07L190.721 6.12H195.221Z" fill="#2F54EB"/>
    <path d="M198.901 22.5C198.081 22.5 197.391 22.22 196.831 21.66C196.271 21.1 195.991 20.4 195.991 19.56C195.991 18.7 196.271 18.01 196.831 17.49C197.391 16.95 198.081 16.68 198.901 16.68C199.721 16.68 200.411 16.95 200.971 17.49C201.531 18.01 201.811 18.7 201.811 19.56C201.811 20.4 201.531 21.1 200.971 21.66C200.411 22.22 199.721 22.5 198.901 22.5Z" fill="#FA8C16"/>
    <path d="M0.9 33.1749V35.3709H4.059V36.1449H0.9V38.6919H0V32.3919H4.446V33.1749H0.9Z" fill="#5976EF"/>
    <path d="M9.83658 38.7639C9.20058 38.7639 8.62758 38.6259 8.11758 38.3499C7.60758 38.0679 7.20558 37.6809 6.91158 37.1889C6.62358 36.6969 6.47958 36.1479 6.47958 35.5419C6.47958 34.9359 6.62358 34.3869 6.91158 33.8949C7.20558 33.4029 7.60758 33.0189 8.11758 32.7429C8.62758 32.4609 9.20058 32.3199 9.83658 32.3199C10.4666 32.3199 11.0366 32.4609 11.5466 32.7429C12.0566 33.0189 12.4556 33.4029 12.7436 33.8949C13.0316 34.3809 13.1756 34.9299 13.1756 35.5419C13.1756 36.1539 13.0316 36.7059 12.7436 37.1979C12.4556 37.6839 12.0566 38.0679 11.5466 38.3499C11.0366 38.6259 10.4666 38.7639 9.83658 38.7639ZM9.83658 37.9629C10.2986 37.9629 10.7126 37.8579 11.0786 37.6479C11.4506 37.4379 11.7416 37.1499 11.9516 36.7839C12.1676 36.4119 12.2756 35.9979 12.2756 35.5419C12.2756 35.0859 12.1676 34.6749 11.9516 34.3089C11.7416 33.9369 11.4506 33.6459 11.0786 33.4359C10.7126 33.2259 10.2986 33.1209 9.83658 33.1209C9.37458 33.1209 8.95458 33.2259 8.57658 33.4359C8.20458 33.6459 7.91058 33.9369 7.69458 34.3089C7.48458 34.6749 7.37958 35.0859 7.37958 35.5419C7.37958 35.9979 7.48458 36.4119 7.69458 36.7839C7.91058 37.1499 8.20458 37.4379 8.57658 37.6479C8.95458 37.8579 9.37458 37.9629 9.83658 37.9629Z" fill="#5976EF"/>
    <path d="M20.1132 38.6919L18.7542 36.7569C18.5862 36.7689 18.4542 36.7749 18.3582 36.7749H16.8012V38.6919H15.9012V32.3919H18.3582C19.1742 32.3919 19.8162 32.5869 20.2842 32.9769C20.7522 33.3669 20.9862 33.9039 20.9862 34.5879C20.9862 35.0739 20.8662 35.4879 20.6262 35.8299C20.3862 36.1719 20.0442 36.4209 19.6002 36.5769L21.0942 38.6919H20.1132ZM18.3312 36.0099C18.9012 36.0099 19.3362 35.8869 19.6362 35.6409C19.9362 35.3949 20.0862 35.0439 20.0862 34.5879C20.0862 34.1319 19.9362 33.7839 19.6362 33.5439C19.3362 33.2979 18.9012 33.1749 18.3312 33.1749H16.8012V36.0099H18.3312Z" fill="#5976EF"/>
    <path d="M32.9752 32.3919V38.6919H32.0752V35.8839H28.4572V38.6919H27.5572V32.3919H28.4572V35.1009H32.0752V32.3919H32.9752Z" fill="#5976EF"/>
    <path d="M39.0549 38.7639C38.4189 38.7639 37.8459 38.6259 37.3359 38.3499C36.8259 38.0679 36.4239 37.6809 36.1299 37.1889C35.8419 36.6969 35.6979 36.1479 35.6979 35.5419C35.6979 34.9359 35.8419 34.3869 36.1299 33.8949C36.4239 33.4029 36.8259 33.0189 37.3359 32.7429C37.8459 32.4609 38.4189 32.3199 39.0549 32.3199C39.6849 32.3199 40.2549 32.4609 40.7649 32.7429C41.2749 33.0189 41.6739 33.4029 41.9619 33.8949C42.2499 34.3809 42.3939 34.9299 42.3939 35.5419C42.3939 36.1539 42.2499 36.7059 41.9619 37.1979C41.6739 37.6839 41.2749 38.0679 40.7649 38.3499C40.2549 38.6259 39.6849 38.7639 39.0549 38.7639ZM39.0549 37.9629C39.5169 37.9629 39.9309 37.8579 40.2969 37.6479C40.6689 37.4379 40.9599 37.1499 41.1699 36.7839C41.3859 36.4119 41.4939 35.9979 41.4939 35.5419C41.4939 35.0859 41.3859 34.6749 41.1699 34.3089C40.9599 33.9369 40.6689 33.6459 40.2969 33.4359C39.9309 33.2259 39.5169 33.1209 39.0549 33.1209C38.5929 33.1209 38.1729 33.2259 37.7949 33.4359C37.4229 33.6459 37.1289 33.9369 36.9129 34.3089C36.7029 34.6749 36.5979 35.0859 36.5979 35.5419C36.5979 35.9979 36.7029 36.4119 36.9129 36.7839C37.1289 37.1499 37.4229 37.4379 37.7949 37.6479C38.1729 37.8579 38.5929 37.9629 39.0549 37.9629Z" fill="#5976EF"/>
    <path d="M50.9605 38.6919L50.9515 34.1019L48.6745 37.9269H48.2605L45.9835 34.1289V38.6919H45.1195V32.3919H45.8575L48.4855 36.8199L51.0775 32.3919H51.8155L51.8245 38.6919H50.9605Z" fill="#5976EF"/>
    <path d="M59.6372 37.9089V38.6919H55.0652V32.3919H59.5112V33.1749H55.9652V35.1099H59.1242V35.8749H55.9652V37.9089H59.6372Z" fill="#5976EF"/>
    <path d="M65.2622 38.7639C64.6262 38.7639 64.0532 38.6259 63.5432 38.3499C63.0332 38.0679 62.6312 37.6809 62.3372 37.1889C62.0492 36.6969 61.9052 36.1479 61.9052 35.5419C61.9052 34.9359 62.0492 34.3869 62.3372 33.8949C62.6312 33.4029 63.0332 33.0189 63.5432 32.7429C64.0532 32.4609 64.6262 32.3199 65.2622 32.3199C65.8922 32.3199 66.4622 32.4609 66.9722 32.7429C67.4822 33.0189 67.8812 33.4029 68.1692 33.8949C68.4572 34.3809 68.6012 34.9299 68.6012 35.5419C68.6012 36.1539 68.4572 36.7059 68.1692 37.1979C67.8812 37.6839 67.4822 38.0679 66.9722 38.3499C66.4622 38.6259 65.8922 38.7639 65.2622 38.7639ZM65.2622 37.9629C65.7242 37.9629 66.1382 37.8579 66.5042 37.6479C66.8762 37.4379 67.1672 37.1499 67.3772 36.7839C67.5932 36.4119 67.7012 35.9979 67.7012 35.5419C67.7012 35.0859 67.5932 34.6749 67.3772 34.3089C67.1672 33.9369 66.8762 33.6459 66.5042 33.4359C66.1382 33.2259 65.7242 33.1209 65.2622 33.1209C64.8002 33.1209 64.3802 33.2259 64.0022 33.4359C63.6302 33.6459 63.3362 33.9369 63.1202 34.3089C62.9102 34.6749 62.8052 35.0859 62.8052 35.5419C62.8052 35.9979 62.9102 36.4119 63.1202 36.7839C63.3362 37.1499 63.6302 37.4379 64.0022 37.6479C64.3802 37.8579 64.8002 37.9629 65.2622 37.9629Z" fill="#5976EF"/>
    <path d="M80.0256 32.3919L77.9196 38.6919H76.9746L75.2556 33.6609L73.5366 38.6919H72.5736L70.4676 32.3919H71.3946L73.0956 37.5129L74.8686 32.3919H75.6966L77.4336 37.5399L79.1706 32.3919H80.0256Z" fill="#5976EF"/>
    <path d="M87.8946 32.3919V38.6919H87.1566L83.3766 33.9939V38.6919H82.4766V32.3919H83.2146L86.9946 37.0899V32.3919H87.8946Z" fill="#5976EF"/>
    <path d="M95.7023 37.9089V38.6919H91.1303V32.3919H95.5763V33.1749H92.0303V35.1099H95.1893V35.8749H92.0303V37.9089H95.7023Z" fill="#5976EF"/>
    <path d="M102.722 38.6919L101.363 36.7569C101.195 36.7689 101.063 36.7749 100.967 36.7749H99.4096V38.6919H98.5096V32.3919H100.967C101.783 32.3919 102.425 32.5869 102.893 32.9769C103.361 33.3669 103.595 33.9039 103.595 34.5879C103.595 35.0739 103.475 35.4879 103.235 35.8299C102.995 36.1719 102.653 36.4209 102.209 36.5769L103.703 38.6919H102.722ZM100.94 36.0099C101.51 36.0099 101.945 35.8869 102.245 35.6409C102.545 35.3949 102.695 35.0439 102.695 34.5879C102.695 34.1319 102.545 33.7839 102.245 33.5439C101.945 33.2979 101.51 33.1749 100.94 33.1749H99.4096V36.0099H100.94Z" fill="#5976EF"/>
    <path d="M108.235 38.7639C107.761 38.7639 107.302 38.6919 106.858 38.5479C106.42 38.3979 106.075 38.2059 105.823 37.9719L106.156 37.2699C106.396 37.4859 106.702 37.6629 107.074 37.8009C107.452 37.9329 107.839 37.9989 108.235 37.9989C108.757 37.9989 109.147 37.9119 109.405 37.7379C109.663 37.5579 109.792 37.3209 109.792 37.0269C109.792 36.8109 109.72 36.6369 109.576 36.5049C109.438 36.3669 109.264 36.2619 109.054 36.1899C108.85 36.1179 108.559 36.0369 108.181 35.9469C107.707 35.8329 107.323 35.7189 107.029 35.6049C106.741 35.4909 106.492 35.3169 106.282 35.0829C106.078 34.8429 105.976 34.5219 105.976 34.1199C105.976 33.7839 106.063 33.4809 106.237 33.2109C106.417 32.9409 106.687 32.7249 107.047 32.5629C107.407 32.4009 107.854 32.3199 108.388 32.3199C108.76 32.3199 109.126 32.3679 109.486 32.4639C109.846 32.5599 110.155 32.6979 110.413 32.8779L110.116 33.5979C109.852 33.4299 109.57 33.3039 109.27 33.2199C108.97 33.1299 108.676 33.0849 108.388 33.0849C107.878 33.0849 107.494 33.1779 107.236 33.3639C106.984 33.5499 106.858 33.7899 106.858 34.0839C106.858 34.2999 106.93 34.4769 107.074 34.6149C107.218 34.7469 107.395 34.8519 107.605 34.9299C107.821 35.0019 108.112 35.0799 108.478 35.1639C108.952 35.2779 109.333 35.3919 109.621 35.5059C109.909 35.6199 110.155 35.7939 110.359 36.0279C110.569 36.2619 110.674 36.5769 110.674 36.9729C110.674 37.3029 110.584 37.6059 110.404 37.8819C110.224 38.1519 109.951 38.3679 109.585 38.5299C109.219 38.6859 108.769 38.7639 108.235 38.7639Z" fill="#5976EF"/>
</svg>
